<svg width="25" height="25" viewBox="0 0 25 25" fill="none" xmlns="http://www.w3.org/2000/svg">
<path d="M23.9333 7.09867C23.9199 6.08883 23.7308 5.08903 23.3747 4.144C23.0658 3.34687 22.594 2.62293 21.9896 2.01844C21.3851 1.41395 20.6611 0.942201 19.864 0.633334C18.9311 0.283143 17.9456 0.0937884 16.9493 0.0733334C15.6667 0.0160001 15.26 0 12.004 0C8.748 0 8.33067 8.9407e-08 7.05733 0.0733334C6.06154 0.0939388 5.07646 0.283291 4.144 0.633334C3.34674 0.941986 2.62269 1.41366 2.01818 2.01818C1.41366 2.62269 0.941985 3.34674 0.633333 4.144C0.282441 5.07618 0.0934975 6.06148 0.0746667 7.05733C0.0173333 8.34133 0 8.748 0 12.004C0 15.26 -9.93411e-09 15.676 0.0746667 16.9507C0.0946667 17.948 0.282667 18.932 0.633333 19.8667C0.942503 20.6637 1.41453 21.3874 2.01925 21.9917C2.62397 22.596 3.34808 23.0674 4.14533 23.376C5.07524 23.7403 6.0605 23.9432 7.05867 23.976C8.34267 24.0333 8.74933 24.0507 12.0053 24.0507C15.2613 24.0507 15.6787 24.0507 16.952 23.976C17.9482 23.9564 18.9338 23.7675 19.8667 23.4173C20.6636 23.1081 21.3873 22.6362 21.9918 22.0318C22.5962 21.4273 23.0681 20.7036 23.3773 19.9067C23.728 18.9733 23.916 17.9893 23.936 16.9907C23.9933 15.708 24.0107 15.3013 24.0107 12.044C24.008 8.788 24.008 8.37467 23.9333 7.09867ZM11.996 18.1613C8.59067 18.1613 5.832 15.4027 5.832 11.9973C5.832 8.592 8.59067 5.83333 11.996 5.83333C13.6308 5.83333 15.1986 6.48275 16.3546 7.63873C17.5106 8.7947 18.16 10.3625 18.16 11.9973C18.16 13.6321 17.5106 15.2 16.3546 16.3559C15.1986 17.5119 13.6308 18.1613 11.996 18.1613ZM18.4053 7.04267C17.6093 7.04267 16.968 6.4 16.968 5.60533C16.968 5.41667 17.0052 5.22985 17.0774 5.05555C17.1496 4.88124 17.2554 4.72286 17.3888 4.58946C17.5222 4.45605 17.6806 4.35023 17.8549 4.27803C18.0292 4.20583 18.216 4.16867 18.4047 4.16867C18.5933 4.16867 18.7801 4.20583 18.9545 4.27803C19.1288 4.35023 19.2871 4.45605 19.4205 4.58946C19.554 4.72286 19.6598 4.88124 19.732 5.05555C19.8042 5.22985 19.8413 5.41667 19.8413 5.60533C19.8413 6.4 19.1987 7.04267 18.4053 7.04267Z" fill="#554F4A"/>
<path d="M11.996 16.0013C14.2074 16.0013 16 14.2087 16 11.9973C16 9.786 14.2074 7.99335 11.996 7.99335C9.78466 7.99335 7.992 9.786 7.992 11.9973C7.992 14.2087 9.78466 16.0013 11.996 16.0013Z" fill="#554F4A"/>
</svg>
