<svg width="136" height="46" viewBox="0 0 136 46" fill="none" xmlns="http://www.w3.org/2000/svg">
<path d="M18.872 0.96V20H14.504C13.1973 18.1893 11.8813 16.3413 10.556 14.456C9.24933 12.5707 7.952 10.7227 6.664 8.912V20H2.072V0.96H6.44L14.28 12.272V0.96H18.872ZM27.0487 16.64C27.4033 16.64 27.7673 16.556 28.1407 16.388C28.5327 16.22 28.906 15.9867 29.2607 15.688V14.316H27.2727C26.8433 14.316 26.498 14.4467 26.2367 14.708C25.9753 14.9507 25.8447 15.2493 25.8447 15.604C25.8447 15.884 25.9567 16.1267 26.1807 16.332C26.4233 16.5373 26.7127 16.64 27.0487 16.64ZM28.1407 5.972C29.8953 5.972 31.286 6.476 32.3127 7.484C33.3393 8.492 33.8527 9.808 33.8527 11.432V20H31.7247L30.8007 18.936C30.3527 19.328 29.7927 19.6547 29.1207 19.916C28.4487 20.1773 27.7487 20.308 27.0207 20.308C25.322 20.308 24.0527 19.888 23.2127 19.048C22.3913 18.208 21.9807 17.1067 21.9807 15.744C21.9807 14.288 22.466 13.2147 23.4367 12.524C24.4073 11.8147 25.6767 11.46 27.2447 11.46H29.2327C29.1767 10.956 28.9713 10.564 28.6167 10.284C28.2807 10.004 27.8513 9.864 27.3287 9.864C26.806 9.864 26.1993 9.948 25.5087 10.116C24.8367 10.284 24.2487 10.48 23.7447 10.704L22.5127 7.26C23.166 6.924 24.0247 6.62533 25.0887 6.364C26.1713 6.10267 27.1887 5.972 28.1407 5.972ZM43.7841 20.392C42.0855 20.392 40.6201 19.9533 39.3881 19.076C38.1748 18.1987 37.5681 16.892 37.5681 15.156V10.396H35.5801V6.812H37.5681V3.284L42.1601 2.612V6.812H45.1561L45.8561 10.396H42.1601V14.568C42.1601 15.184 42.3188 15.6787 42.6361 16.052C42.9721 16.4253 43.4575 16.612 44.0921 16.612C44.3348 16.612 44.6148 16.5747 44.9321 16.5C45.2681 16.4067 45.5855 16.2853 45.8841 16.136L47.2001 19.3C46.8828 19.5987 46.3788 19.8507 45.6881 20.056C44.9975 20.28 44.3628 20.392 43.7841 20.392ZM53.5448 16.64C53.8994 16.64 54.2634 16.556 54.6368 16.388C55.0288 16.22 55.4021 15.9867 55.7568 15.688V14.316H53.7688C53.3394 14.316 52.9941 14.4467 52.7328 14.708C52.4714 14.9507 52.3408 15.2493 52.3408 15.604C52.3408 15.884 52.4528 16.1267 52.6768 16.332C52.9194 16.5373 53.2088 16.64 53.5448 16.64ZM54.6368 5.972C56.3914 5.972 57.7821 6.476 58.8088 7.484C59.8354 8.492 60.3488 9.808 60.3488 11.432V20H58.2208L57.2968 18.936C56.8488 19.328 56.2888 19.6547 55.6168 19.916C54.9448 20.1773 54.2448 20.308 53.5168 20.308C51.8181 20.308 50.5488 19.888 49.7088 19.048C48.8874 18.208 48.4768 17.1067 48.4768 15.744C48.4768 14.288 48.9621 13.2147 49.9328 12.524C50.9034 11.8147 52.1728 11.46 53.7408 11.46H55.7288C55.6728 10.956 55.4674 10.564 55.1128 10.284C54.7768 10.004 54.3474 9.864 53.8248 9.864C53.3021 9.864 52.6954 9.948 52.0048 10.116C51.3328 10.284 50.7448 10.48 50.2408 10.704L49.0088 7.26C49.6621 6.924 50.5208 6.62533 51.5847 6.364C52.6674 6.10267 53.6848 5.972 54.6368 5.972ZM69.1602 11.348C70.2802 11.74 71.3442 12.2907 72.3522 13C73.3602 13.6907 73.8642 14.652 73.8642 15.884C73.8642 17.284 73.3882 18.376 72.4362 19.16C71.5029 19.9253 70.0936 20.308 68.2082 20.308C67.6296 20.308 66.7616 20.168 65.6042 19.888C64.4656 19.608 63.5229 19.1787 62.7762 18.6L64.0922 15.408C64.6709 15.688 65.3149 15.9493 66.0242 16.192C66.7522 16.416 67.3589 16.528 67.8442 16.528C68.2736 16.528 68.6002 16.4627 68.8242 16.332C69.0482 16.1827 69.1602 16.024 69.1602 15.856C69.1602 15.6507 69.0482 15.464 68.8242 15.296C68.6002 15.128 68.2269 14.96 67.7042 14.792C66.5842 14.4187 65.5109 13.896 64.4842 13.224C63.4762 12.552 62.9722 11.6093 62.9722 10.396C62.9722 9.01467 63.4856 7.932 64.5122 7.148C65.5389 6.364 66.9482 5.972 68.7402 5.972C69.3002 5.972 70.0749 6.10267 71.0642 6.364C72.0722 6.62533 72.9496 7.04533 73.6962 7.624L72.3802 10.816C71.8016 10.5173 71.2136 10.2747 70.6162 10.088C70.0376 9.88267 69.4869 9.78 68.9642 9.78C68.5349 9.78 68.2176 9.84533 68.0122 9.976C67.8256 10.1067 67.7322 10.256 67.7322 10.424C67.7322 10.592 67.8256 10.7413 68.0122 10.872C68.2176 11.0027 68.6002 11.1613 69.1602 11.348ZM85.0358 5.944C86.9211 5.944 88.2651 6.48533 89.0678 7.568C89.8891 8.632 90.2998 9.96667 90.2998 11.572V20H85.7078V11.712C85.7078 11.0773 85.5304 10.592 85.1758 10.256C84.8211 9.90133 84.3544 9.724 83.7758 9.724C83.3838 9.724 82.9264 9.82667 82.4038 10.032C81.8998 10.2373 81.4424 10.4613 81.0318 10.704V20H76.4398V0.539999L81.0318 0.231999V7.008C81.6104 6.69067 82.2638 6.43867 82.9918 6.252C83.7198 6.04667 84.4011 5.944 85.0358 5.944ZM97.869 16.64C98.2236 16.64 98.5876 16.556 98.961 16.388C99.353 16.22 99.7263 15.9867 100.081 15.688V14.316H98.093C97.6636 14.316 97.3183 14.4467 97.057 14.708C96.7956 14.9507 96.665 15.2493 96.665 15.604C96.665 15.884 96.777 16.1267 97.001 16.332C97.2436 16.5373 97.533 16.64 97.869 16.64ZM98.961 5.972C100.716 5.972 102.106 6.476 103.133 7.484C104.16 8.492 104.673 9.808 104.673 11.432V20H102.545L101.621 18.936C101.173 19.328 100.613 19.6547 99.941 19.916C99.269 20.1773 98.569 20.308 97.841 20.308C96.1423 20.308 94.873 19.888 94.033 19.048C93.2116 18.208 92.801 17.1067 92.801 15.744C92.801 14.288 93.2863 13.2147 94.257 12.524C95.2276 11.8147 96.497 11.46 98.065 11.46H100.053C99.997 10.956 99.7916 10.564 99.437 10.284C99.101 10.004 98.6716 9.864 98.149 9.864C97.6263 9.864 97.0196 9.948 96.329 10.116C95.657 10.284 95.069 10.48 94.565 10.704L93.333 7.26C93.9863 6.924 94.845 6.62533 95.909 6.364C96.9916 6.10267 98.009 5.972 98.961 5.972ZM9.604 31.672L7.56 37.356H11.732L9.604 31.672ZM11.9 25.96L19.096 44.496L14.56 45L13.076 40.996H6.272L4.816 45H0.252L7.476 25.96H11.9ZM29.6634 30.916C31.5487 30.916 32.8927 31.4573 33.6954 32.54C34.5167 33.6227 34.9274 34.9667 34.9274 36.572V45H30.3354V36.684C30.3354 36.0493 30.158 35.564 29.8034 35.228C29.4674 34.892 29.01 34.724 28.4314 34.724C28.0394 34.724 27.582 34.8267 27.0594 35.032C26.5367 35.2373 26.07 35.4613 25.6594 35.704V45H21.0674V31.448H23.3914L24.4554 32.708C25.0527 32.2787 25.818 31.8773 26.7514 31.504C27.7034 31.112 28.674 30.916 29.6634 30.916ZM42.9459 27.052C42.9459 27.7427 42.6939 28.3307 42.1899 28.816C41.6859 29.3013 41.0885 29.544 40.3979 29.544C39.7072 29.544 39.1192 29.3013 38.6339 28.816C38.1485 28.3307 37.9059 27.7427 37.9059 27.052C37.9059 26.3613 38.1485 25.764 38.6339 25.26C39.1192 24.756 39.7072 24.504 40.3979 24.504C41.0885 24.504 41.6859 24.756 42.1899 25.26C42.6939 25.764 42.9459 26.3613 42.9459 27.052ZM42.7219 31.42V45H38.1019V31.42H42.7219ZM51.7696 36.348C52.8896 36.74 53.9536 37.2907 54.9616 38C55.9696 38.6907 56.4736 39.652 56.4736 40.884C56.4736 42.284 55.9976 43.376 55.0456 44.16C54.1123 44.9253 52.7029 45.308 50.8176 45.308C50.2389 45.308 49.3709 45.168 48.2136 44.888C47.0749 44.608 46.1323 44.1787 45.3856 43.6L46.7016 40.408C47.2803 40.688 47.9243 40.9493 48.6336 41.192C49.3616 41.416 49.9683 41.528 50.4536 41.528C50.8829 41.528 51.2096 41.4627 51.4336 41.332C51.6576 41.1827 51.7696 41.024 51.7696 40.856C51.7696 40.6507 51.6576 40.464 51.4336 40.296C51.2096 40.128 50.8363 39.96 50.3136 39.792C49.1936 39.4187 48.1203 38.896 47.0936 38.224C46.0856 37.552 45.5816 36.6093 45.5816 35.396C45.5816 34.0147 46.0949 32.932 47.1216 32.148C48.1483 31.364 49.5576 30.972 51.3496 30.972C51.9096 30.972 52.6843 31.1027 53.6736 31.364C54.6816 31.6253 55.5589 32.0453 56.3056 32.624L54.9896 35.816C54.4109 35.5173 53.8229 35.2747 53.2256 35.088C52.6469 34.8827 52.0963 34.78 51.5736 34.78C51.1443 34.78 50.8269 34.8453 50.6216 34.976C50.4349 35.1067 50.3416 35.256 50.3416 35.424C50.3416 35.592 50.4349 35.7413 50.6216 35.872C50.8269 36.0027 51.2096 36.1613 51.7696 36.348ZM63.8092 27.052C63.8092 27.7427 63.5572 28.3307 63.0532 28.816C62.5492 29.3013 61.9518 29.544 61.2612 29.544C60.5705 29.544 59.9825 29.3013 59.4972 28.816C59.0118 28.3307 58.7692 27.7427 58.7692 27.052C58.7692 26.3613 59.0118 25.764 59.4972 25.26C59.9825 24.756 60.5705 24.504 61.2612 24.504C61.9518 24.504 62.5492 24.756 63.0532 25.26C63.5572 25.764 63.8092 26.3613 63.8092 27.052ZM63.5852 31.42V45H58.9652V31.42H63.5852ZM84.1689 30.916C85.9609 30.916 87.2582 31.4573 88.0609 32.54C88.8635 33.6227 89.2649 34.9667 89.2649 36.572V45H84.6449V36.684C84.6449 36.0493 84.4862 35.564 84.1689 35.228C83.8702 34.892 83.4595 34.724 82.9369 34.724C82.5449 34.724 82.1062 34.8267 81.6209 35.032C81.1542 35.2373 80.7155 35.4707 80.3049 35.732C80.3235 35.8627 80.3329 36.0027 80.3329 36.152C80.3515 36.3013 80.3609 36.4413 80.3609 36.572V45H75.7409V36.684C75.7409 36.0493 75.5822 35.564 75.2649 35.228C74.9662 34.892 74.5555 34.724 74.0329 34.724C73.6782 34.724 73.2862 34.8173 72.8569 35.004C72.4275 35.172 72.0075 35.368 71.5969 35.592V45H67.0049V31.448H69.3289L70.3369 32.624C70.9155 32.2133 71.6342 31.8307 72.4929 31.476C73.3702 31.1027 74.3035 30.916 75.2929 30.916C76.2262 30.916 77.0195 31.0747 77.6729 31.392C78.3262 31.7093 78.8582 32.1293 79.2689 32.652C79.8289 32.2227 80.5475 31.8307 81.4249 31.476C82.3022 31.1027 83.2169 30.916 84.1689 30.916ZM99.1546 30.972C101.413 30.972 103.224 31.6067 104.587 32.876C105.968 34.1453 106.659 35.9467 106.659 38.28C106.659 40.52 105.931 42.256 104.475 43.488C103.019 44.7013 101.199 45.308 99.0146 45.308C96.8492 45.308 95.0852 44.7013 93.7226 43.488C92.3599 42.2747 91.6786 40.492 91.6786 38.14C91.6786 35.9 92.3879 34.1453 93.8066 32.876C95.2252 31.6067 97.0079 30.972 99.1546 30.972ZM99.0706 41.528C99.9479 41.528 100.639 41.2667 101.143 40.744C101.647 40.2027 101.899 39.3813 101.899 38.28C101.899 37.2533 101.665 36.4133 101.199 35.76C100.751 35.1067 100.097 34.78 99.2386 34.78C98.3426 34.78 97.6519 35.0693 97.1666 35.648C96.6812 36.2267 96.4386 37.0573 96.4386 38.14C96.4386 39.204 96.6626 40.0347 97.1106 40.632C97.5586 41.2293 98.2119 41.528 99.0706 41.528ZM113.058 45L107.85 31.924L112.414 31.42L115.27 39.288L117.986 31.42H122.634L117.286 45H113.058ZM128.959 41.64C129.313 41.64 129.677 41.556 130.051 41.388C130.443 41.22 130.816 40.9867 131.171 40.688V39.316H129.183C128.753 39.316 128.408 39.4467 128.147 39.708C127.885 39.9507 127.755 40.2493 127.755 40.604C127.755 40.884 127.867 41.1267 128.091 41.332C128.333 41.5373 128.623 41.64 128.959 41.64ZM130.051 30.972C131.805 30.972 133.196 31.476 134.223 32.484C135.249 33.492 135.763 34.808 135.763 36.432V45H133.635L132.711 43.936C132.263 44.328 131.703 44.6547 131.031 44.916C130.359 45.1773 129.659 45.308 128.931 45.308C127.232 45.308 125.963 44.888 125.123 44.048C124.301 43.208 123.891 42.1067 123.891 40.744C123.891 39.288 124.376 38.2147 125.347 37.524C126.317 36.8147 127.587 36.46 129.155 36.46H131.143C131.087 35.956 130.881 35.564 130.527 35.284C130.191 35.004 129.761 34.864 129.239 34.864C128.716 34.864 128.109 34.948 127.419 35.116C126.747 35.284 126.159 35.48 125.655 35.704L124.423 32.26C125.076 31.924 125.935 31.6253 126.999 31.364C128.081 31.1027 129.099 30.972 130.051 30.972Z" fill="#4B4540"/>
</svg>
